<svg xmlns="http://www.w3.org/2000/svg"   width="115" height="115"  viewBox="0 0 89.5 89.2"><defs><style>.cls-1{fill:#fff;opacity:0.8;}</style></defs><title>Asset 13</title><g id="Layer_2" data-name="Layer 2"><g id="Layer_1-2" data-name="Layer 1"><path class="cls-1" d="M49.6,89.2l-.2-1.3a43.5,43.5,0,0,0,9-84.5l.4-1.2a44.8,44.8,0,0,1-9.2,87ZM24.2,84.4l-3.4-1.9.7-1.1a35.4,35.4,0,0,0,3.3,1.9ZM8.5,70.9A44.3,44.3,0,0,1,0,44.7,44.9,44.9,0,0,1,14.8,11.4l.9,1A43.3,43.3,0,0,0,1.3,44.7,42.8,42.8,0,0,0,9.5,70.1ZM38.3,1.7V.4L42.1,0V1.3Z"/></g></g></svg>