<svg xmlns="http://www.w3.org/2000/svg"   width="130" height="130"  viewBox="0 0 100.7 100.9"><defs><style>.cls-1{opacity:0.5;}.cls-2{fill:#fff;}</style></defs><title>Asset 10</title><g id="Layer_2" data-name="Layer 2"><g id="Layer_1-2" data-name="Layer 1"><g class="cls-1"><path class="cls-2" d="M98.4,58.4a24.7,24.7,0,0,1-.6,2.9c-.4,1.6-.8,3.2-1.3,4.8a.8.8,0,0,0,.5,1.1h0a.8.8,0,0,0,1.1-.5,41,41,0,0,0,1.4-5c.3-1,.4-2,.6-3l.3-2.1a.8.8,0,0,0-.8-1h0c-.4-.1-.8.3-.9.7Z"/><path class="cls-2" d="M99,52.2v.7a1.1,1.1,0,0,0,.9.9h0a1,1,0,0,0,.9-.8v-.7a.8.8,0,0,0-.8-.9h0A.8.8,0,0,0,99,52.2Z"/><path class="cls-2" d="M95.4,71.1h0a.9.9,0,0,0,1.2-.4,1.4,1.4,0,0,0,.2-.6.9.9,0,0,0-.4-1.2h0a.8.8,0,0,0-1.1.5L95,70A.8.8,0,0,0,95.4,71.1Z"/><path class="cls-2" d="M93.5,74.9h0a.8.8,0,0,0,1.2-.4L95,74a.9.9,0,0,0-.4-1.2h0a.9.9,0,0,0-1.2.4l-.3.6A.8.8,0,0,0,93.5,74.9Z"/><path class="cls-2" d="M82,88.6h0a.8.8,0,0,0,1.2.1l.5-.5a.8.8,0,0,0,.1-1.2h0a1,1,0,0,0-1.3-.1l-.4.5A.8.8,0,0,0,82,88.6Z"/><path class="cls-2" d="M74.1,93l-2.6,1.3c-.9.4-1.8.9-2.7,1.2l-2,.8a.9.9,0,0,0-.5,1.1h0a.9.9,0,0,0,1.1.5l2.1-.7,2.7-1.3c.9-.5,1.9-.8,2.8-1.4l1.8-1.1a1,1,0,0,0,.3-1.2h0a1,1,0,0,0-1.2-.3Z"/><path class="cls-2" d="M78.6,91.2h0a.8.8,0,0,0,1.2.2l.5-.4a.9.9,0,0,0,.2-1.3h0a.9.9,0,0,0-1.2-.1l-.5.4A.8.8,0,0,0,78.6,91.2Z"/><path class="cls-2" d="M62.3,98.5h0a.9.9,0,0,0,1.1.7L64,99a.8.8,0,0,0,.6-1.1h0a.9.9,0,0,0-1-.6l-.7.2A.9.9,0,0,0,62.3,98.5Z"/><path class="cls-2" d="M53.3,99l-2.9.2h-.1L47.4,99H45.3a.9.9,0,0,0-.9.8h0a.9.9,0,0,0,.8,1H55.5a.9.9,0,0,0,.8-1h0a.8.8,0,0,0-.9-.8Z"/><path class="cls-2" d="M58.1,99.4h0a.8.8,0,0,0,1,.7h.7a.9.9,0,0,0,.7-1h0a.8.8,0,0,0-1-.7h-.6A1,1,0,0,0,58.1,99.4Z"/><path class="cls-2" d="M41,100h.6a.8.8,0,0,0,1-.7h0a.8.8,0,0,0-.7-1h-.6a.8.8,0,0,0-1,.7h0A.8.8,0,0,0,41,100Z"/><path class="cls-2" d="M29.2,94.3,26.6,93l-1.8-1.1a1,1,0,0,0-1.2.3h0a1,1,0,0,0,.3,1.2l1.9,1.1a22.9,22.9,0,0,0,2.7,1.4l2.8,1.3,2,.7a.9.9,0,0,0,1.1-.5h0a.8.8,0,0,0-.5-1.1l-2-.8C31,95.2,30.1,94.7,29.2,94.3Z"/><path class="cls-2" d="M36.7,99l.7.2a.8.8,0,0,0,1-.7h0a.7.7,0,0,0-.6-1l-.6-.2a1,1,0,0,0-1.1.6h0A.9.9,0,0,0,36.7,99Z"/><path class="cls-2" d="M20.4,91l.5.4a.9.9,0,0,0,1.3-.2h0A1.1,1.1,0,0,0,22,90l-.6-.4a.8.8,0,0,0-1.2.2h0A.8.8,0,0,0,20.4,91Z"/><path class="cls-2" d="M6.1,72.8h0A1,1,0,0,0,5.7,74l.3.6a1,1,0,0,0,1.3.3h0a.8.8,0,0,0,.3-1.1l-.3-.6A.9.9,0,0,0,6.1,72.8Z"/><path class="cls-2" d="M1.1,55.6h0a.8.8,0,0,0-.8,1A59,59,0,0,0,2.6,66.7a.8.8,0,0,0,1.1.5h0a.9.9,0,0,0,.6-1.1A45.2,45.2,0,0,1,2,56.3C1.9,55.9,1.5,55.5,1.1,55.6Z"/><path class="cls-2" d="M4.4,68.9h0a.9.9,0,0,0-.5,1.2l.3.6a.8.8,0,0,0,1.1.4h0A.7.7,0,0,0,5.7,70a1.4,1.4,0,0,0-.2-.6A1,1,0,0,0,4.4,68.9Z"/><path class="cls-2" d="M.9,51.4h0a.9.9,0,0,0-.9.9V53a1,1,0,0,0,1,.8H1a.9.9,0,0,0,.8-.9v-.7A.9.9,0,0,0,.9,51.4Z"/><path class="cls-2" d="M2.3,42.5c.2-.9.3-1.9.6-2.9s.8-3.2,1.3-4.8a.8.8,0,0,0-.5-1.1h0a.9.9,0,0,0-1.1.5,46.7,46.7,0,0,0-1.4,5c-.3,1-.4,2-.6,3L.3,44.3a.8.8,0,0,0,.8,1h0a.7.7,0,0,0,.9-.7Z"/><path class="cls-2" d="M1,47.1H1A1.1,1.1,0,0,0,0,48v.6a.9.9,0,0,0,.9.9h0c.4.1.8-.3.8-.8v-.6A1.1,1.1,0,0,0,1,47.1Z"/><path class="cls-2" d="M5.3,29.8h0a.9.9,0,0,0-1.2.5c0,.2-.1.3-.2.5A.9.9,0,0,0,4.3,32h0a.9.9,0,0,0,1.2-.4,1.4,1.4,0,0,1,.2-.6A.9.9,0,0,0,5.3,29.8Z"/><path class="cls-2" d="M7.2,26h0a.9.9,0,0,0-1.2.4l-.3.6a.8.8,0,0,0,.4,1.1h0a.8.8,0,0,0,1.2-.3l.3-.6A1,1,0,0,0,7.2,26Z"/><path class="cls-2" d="M18.7,12.3h0a.9.9,0,0,0-1.2-.1l-.5.5a.8.8,0,0,0-.1,1.2h0a.9.9,0,0,0,1.3.1l.5-.5A.9.9,0,0,0,18.7,12.3Z"/><path class="cls-2" d="M26.6,7.9c.8-.5,1.8-.8,2.6-1.3l2.7-1.2,2-.7a.9.9,0,0,0,.5-1.1h0A1,1,0,0,0,33.3,3l-2.1.8L28.5,5,25.8,6.4,23.9,7.5a1.1,1.1,0,0,0-.3,1.3h0a.8.8,0,0,0,1.2.2Z"/><path class="cls-2" d="M22.1,9.8h0a.8.8,0,0,0-1.2-.2l-.5.4a.8.8,0,0,0-.2,1.2h0a.8.8,0,0,0,1.2.1l.5-.3A.8.8,0,0,0,22.1,9.8Z"/><path class="cls-2" d="M38.4,2.4h0a.7.7,0,0,0-1-.6h-.7A.9.9,0,0,0,36.1,3h0a.9.9,0,0,0,1.1.6h.6A1,1,0,0,0,38.4,2.4Z"/><path class="cls-2" d="M47.4,1.9l2.9-.2h.1l2.9.2h2.1a.8.8,0,0,0,.9-.8h0a.8.8,0,0,0-.8-.9H53.4l-3-.2h-.1l-3,.2H45.2a.8.8,0,0,0-.8.9h0a.8.8,0,0,0,.9.8Z"/><path class="cls-2" d="M42.6,1.5h0a1,1,0,0,0-1-.7h-.7A1,1,0,0,0,40.2,2h0a.9.9,0,0,0,1,.6h.7A.8.8,0,0,0,42.6,1.5Z"/><path class="cls-2" d="M71.5,6.6c.8.5,1.8.8,2.6,1.3L75.9,9a.9.9,0,0,0,1.2-.3h0a1,1,0,0,0-.3-1.2L74.9,6.4,72.2,5c-.9-.4-1.8-.9-2.7-1.2L67.4,3a1,1,0,0,0-1.1.6h0a1,1,0,0,0,.5,1.1l2,.7C69.7,5.7,70.6,6.2,71.5,6.6Z"/><polygon class="cls-2" points="81 10.5 79.1 9 78.1 10.4 80 11.8 81 10.5"/><path class="cls-2" d="M86.5,17.9a20,20,0,0,1,1.9,2.2,30.2,30.2,0,0,1,2.9,4.1,1,1,0,0,0,1.2.3.8.8,0,0,0,.3-1.2c-.9-1.5-2-2.9-3-4.3s-1.3-1.5-2-2.3l-1.4-1.6a1,1,0,0,0-1.3,0h0a.9.9,0,0,0,0,1.2Z"/><path class="cls-2" d="M83.7,12.7l-.5-.5a.8.8,0,0,0-1.2.1h0a.9.9,0,0,0,0,1.2l.5.5a.9.9,0,0,0,1.3-.1h0A.8.8,0,0,0,83.7,12.7Z"/><path class="cls-2" d="M93.8,28.5l1.6-.8a14.3,14.3,0,0,0-1.2-2.1l-1.5.8A21.2,21.2,0,0,1,93.8,28.5Z"/><path class="cls-2" d="M99.7,45.3h0a.8.8,0,0,0,.7-1,50.9,50.9,0,0,0-2.3-10.1.9.9,0,0,0-1.1-.5h0a.8.8,0,0,0-.5,1.1,55.5,55.5,0,0,1,2.2,9.8A.8.8,0,0,0,99.7,45.3Z"/><path class="cls-2" d="M99.9,49.5h0a.8.8,0,0,0,.8-.9v-.7a1,1,0,0,0-.9-.8h0a1.1,1.1,0,0,0-.9.9v.7A.8.8,0,0,0,99.9,49.5Z"/></g></g></g></svg>