<svg xmlns="http://www.w3.org/2000/svg"  width="210" height="210"  viewBox="0 0 158.2 98.2"><defs><style>.cls-1{fill:#fff;opacity:0.1;}</style></defs><title>Asset 5</title><g id="Layer_2" data-name="Layer 2"><g id="Layer_1-2" data-name="Layer 1"><path class="cls-1" d="M154.3,24A79.1,79.1,0,0,0,141.6,0L128.1,10.4a62.4,62.4,0,0,1,10,18.9,61.8,61.8,0,0,1-10.7,58.2l13.2,10.7A78.8,78.8,0,0,0,154.3,24Z"/><path class="cls-1" d="M17.3,0A79.1,79.1,0,0,0,6,79.5,76.2,76.2,0,0,0,16.9,98.2L30.2,87.7a61.2,61.2,0,0,1-8.5-14.6,62.2,62.2,0,0,1,8.9-62.5Z"/></g></g></svg>