<svg xmlns="http://www.w3.org/2000/svg"   width="95" height="95"  viewBox="0 0 65.5 65.5"><defs><style>.cls-1{opacity:0.9;}.cls-2{fill:#fff;}</style></defs><title>Asset 14</title><g id="Layer_2" data-name="Layer 2"><g id="Layer_1-2" data-name="Layer 1"><g class="cls-1"><path class="cls-2" d="M32.8,65.5h0a33.9,33.9,0,0,1-13-2.6l.8-1.8a29.6,29.6,0,0,0,12.2,2.5Zm30-19.8L61.1,45a30.3,30.3,0,0,0,2.5-12.2l1.9-.2v.2A31.7,31.7,0,0,1,62.8,45.7ZM.3,32.8H0A33,33,0,0,1,2.6,19.9l1.8.7A29.6,29.6,0,0,0,1.9,32.8ZM44.9,4.4A29.5,29.5,0,0,0,32.8,1.9V0h.1A32.9,32.9,0,0,1,45.6,2.6Z"/></g></g></g></svg>