<svg xmlns="http://www.w3.org/2000/svg"  width="183" height="183"   viewBox="0 0 137.9 137.9"><defs><style>.cls-1{fill:#fff;opacity:0.7;}</style></defs><title>Asset 15</title><g id="Layer_2" data-name="Layer 2"><g id="Layer_1-2" data-name="Layer 1"><path class="cls-1" d="M69,0,64.1.2V2.6L69,2.4A66.6,66.6,0,0,1,135.5,69h2.4A69,69,0,0,0,69,0Zm66.3,74.1A66.6,66.6,0,0,1,69,135.5a39.3,39.3,0,0,1-4.9-.2v2.4a39.3,39.3,0,0,0,4.9.2,69,69,0,0,0,68.7-63.8ZM2.7,74.1H.2A69.1,69.1,0,0,0,59,137.2v-2.4A66.6,66.6,0,0,1,2.7,74.1ZM0,69H2.4A66.6,66.6,0,0,1,59,3.2V.7A69.1,69.1,0,0,0,0,69Z"/></g></g></svg>