<svg xmlns="http://www.w3.org/2000/svg"   width="105" height="105"  viewBox="0 0 83.3 83.4"><defs><style>.cls-1{fill:#fff;}</style></defs><title>Asset 16</title><g id="Layer_2" data-name="Layer 2"><g id="Layer_1-2" data-name="Layer 1"><path class="cls-1" d="M42.9,83.4a.7.7,0,0,1-.7-.6.7.7,0,0,1,.7-.7h1.2a.7.7,0,0,1,.7.7.6.6,0,0,1-.6.6Zm-6.4-.3h-.1l-1.3-.2a.7.7,0,0,1-.6-.7.8.8,0,0,1,.8-.6l1.2.2a.7.7,0,0,1,.6.7A.6.6,0,0,1,36.5,83.1Zm14.1-.7a.8.8,0,0,1-.7-.5c0-.3.2-.7.5-.7l1.3-.3c.3-.1.7.1.7.4a.6.6,0,0,1-.4.8l-1.3.3Zm-21.7-1h-.2l-1.2-.5c-.4-.1-.5-.4-.4-.8a.7.7,0,0,1,.8-.4l1.2.4a.8.8,0,0,1,.4.9A.7.7,0,0,1,28.9,81.4Zm29-1.3a.8.8,0,0,1-.6-.4.7.7,0,0,1,.4-.9l1.1-.5a.7.7,0,0,1,.9.3.8.8,0,0,1-.3.9l-1.2.5ZM21.8,78.3h-.3l-1.1-.6a.8.8,0,0,1-.3-.9.7.7,0,0,1,.9-.2l1.1.6a.8.8,0,0,1,.3.9A.7.7,0,0,1,21.8,78.3Zm42.9-2a.5.5,0,0,1-.5-.3.5.5,0,0,1,.1-.8l1.1-.8a.7.7,0,0,1,.7,1.1l-1,.7ZM15.4,74l-.4-.2L14,73a.6.6,0,0,1,0-.9.6.6,0,0,1,.9-.1l.9.8a.6.6,0,0,1,.1.9A.5.5,0,0,1,15.4,74Zm55.2-2.6-.4-.2a.6.6,0,0,1,0-.9l.9-.9a.6.6,0,0,1,.9,0,.6.6,0,0,1,0,.9l-.9.9ZM10,68.5l-.5-.2-.9-1.1a.7.7,0,0,1,.2-.9c.2-.2.6-.1.9.1a3.9,3.9,0,0,0,.8,1,.7.7,0,0,1-.1.9Zm65.6-3.1h-.4a.7.7,0,0,1-.2-.9,6.1,6.1,0,0,0,.7-1,.7.7,0,1,1,1.1.7l-.7,1.1C76,65.4,75.8,65.4,75.6,65.4Zm-70-3.3a.9.9,0,0,1-.6-.3l-.6-1.2a.8.8,0,0,1,.3-.9.8.8,0,0,1,.9.3l.6,1.1a.7.7,0,0,1-.3.9Zm73.7-3.4c-.1,0-.2,0-.2-.1a.6.6,0,0,1-.4-.8,6.1,6.1,0,0,0,.5-1.2.7.7,0,0,1,.8-.4.7.7,0,0,1,.4.9l-.5,1.2A.7.7,0,0,1,79.3,58.7ZM2.5,55a.8.8,0,0,1-.6-.4l-.3-1.3a.6.6,0,0,1,.4-.8.7.7,0,0,1,.8.4,5,5,0,0,0,.4,1.3.7.7,0,0,1-.5.8Zm79.2-3.7h-.1a.6.6,0,0,1-.5-.8,5,5,0,0,0,.2-1.2.6.6,0,0,1,.8-.5.6.6,0,0,1,.5.7l-.3,1.3A.6.6,0,0,1,81.7,51.3Zm1.1-9.1h-.2a.7.7,0,0,1-.6-.7V40.3a.6.6,0,0,1,.6-.6.7.7,0,0,1,.7.6v1.3A.6.6,0,0,1,82.8,42.2ZM.9,47.5a.9.9,0,0,1-.7-.6c0-.4-.1-.9-.1-1.3s.2-.7.6-.7a.7.7,0,0,1,.7.6c0,.4.1.8.1,1.2a.5.5,0,0,1-.5.7ZM.6,39.7h0c-.4,0-.6-.3-.6-.7s.1-.8.1-1.3a.6.6,0,0,1,.7-.5c.4,0,.6.3.6.7s-.1.8-.1,1.2S1,39.7.6,39.7Zm81.1-6.2a.6.6,0,0,1-.6-.5l-.3-1.3a.5.5,0,0,1,.5-.7.7.7,0,0,1,.8.4l.3,1.3a.9.9,0,0,1-.5.8ZM1.9,32.1H1.7a.7.7,0,0,1-.5-.8L1.6,30a.6.6,0,0,1,1.2.4l-.3,1.2A.7.7,0,0,1,1.9,32.1Zm77.5-6a.5.5,0,0,1-.6-.4l-.6-1.1a.7.7,0,0,1,.4-.9.6.6,0,0,1,.8.3,6.1,6.1,0,0,1,.5,1.2.7.7,0,0,1-.3.9ZM4.5,24.8H4.2a.7.7,0,0,1-.3-.9l.6-1.2c.1-.3.5-.4.9-.3a.7.7,0,0,1,.2.9,11.7,11.7,0,0,1-.5,1.1A.6.6,0,0,1,4.5,24.8Zm71.1-5.5-.5-.2L74.4,18a.6.6,0,0,1,.1-.9.7.7,0,0,1,.9.2l.8,1a.7.7,0,0,1-.2.9ZM8.4,18.2,8.1,18a.7.7,0,0,1-.2-.9l.8-1a.6.6,0,1,1,1,.8l-.7,1A.9.9,0,0,1,8.4,18.2Zm62.3-4.8-.4-.2-.9-.9a.6.6,0,0,1-.1-.9.6.6,0,0,1,.9,0l1,.9a.7.7,0,0,1,0,.9Zm-57.1-1-.5-.2a.6.6,0,0,1,0-.9l1-.9a.6.6,0,1,1,.8.9l-.9.9Zm51.2-4h-.4l-1-.7a.7.7,0,0,1-.2-.9.5.5,0,0,1,.8-.2l1.1.8a.7.7,0,0,1,.2.9ZM19.7,7.6a.9.9,0,0,1-.6-.3.5.5,0,0,1,.2-.8l1.1-.7c.4-.2.8-.1.9.2a.7.7,0,0,1-.2.9L20,7.5ZM58,4.7c-.1,0-.2,0-.2-.1l-1.2-.5a.6.6,0,0,1-.4-.8.8.8,0,0,1,.9-.4l1.2.6a.6.6,0,0,1,.3.8A.7.7,0,0,1,58,4.7ZM26.6,4.1a.5.5,0,0,1-.6-.4.6.6,0,0,1,.3-.8l1.3-.5a.7.7,0,0,1,.8.4.6.6,0,0,1-.4.8l-1.2.5ZM50.7,2.3h-.2L49.3,2c-.4-.1-.6-.4-.5-.7a.7.7,0,0,1,.7-.6l1.3.3a.7.7,0,0,1,.5.8A.6.6,0,0,1,50.7,2.3ZM34,2a.6.6,0,0,1-.6-.5.6.6,0,0,1,.5-.8L35.2.5c.3-.1.6.2.7.5a.7.7,0,0,1-.5.8L34.1,2Zm9-.7H41.7A.7.7,0,0,1,41,.6a.7.7,0,0,1,.7-.6H43c.4,0,.6.3.6.7A.6.6,0,0,1,43,1.3Z"/></g></g></svg>