<svg xmlns="http://www.w3.org/2000/svg"   width="180" height="180"  viewBox="0 0 135.9 135.9"><defs><style>.cls-1{opacity:0.7;}.cls-2{fill:#fff;opacity:0.5;}</style></defs><title>Asset 18</title><g id="Layer_2" data-name="Layer 2"><g id="Layer_1-2" data-name="Layer 1"><g class="cls-1"><path class="cls-2" d="M49.5,2.5A74.3,74.3,0,0,0,34.7,8.6l6.8,11.8A52.4,52.4,0,0,1,53,15.7Zm-30.2,18A71.6,71.6,0,0,0,9.5,33.2L21.3,40a56.6,56.6,0,0,1,7.6-9.9Zm67.1-18L82.9,15.7a51.7,51.7,0,0,1,11.4,4.7l6.8-11.8A73.4,73.4,0,0,0,86.4,2.5Zm30.2,18L107,30.1a56.6,56.6,0,0,1,7.6,9.9l11.7-6.8A66.7,66.7,0,0,0,116.6,20.5Zm5.7,48.3a54.5,54.5,0,0,1-1.6,12.3l13.1,3.6a69.3,69.3,0,0,0,2.1-15.9Zm-7.7,27.1a52.4,52.4,0,0,1-7.6,9.8l9.6,9.6a66.1,66.1,0,0,0,9.7-12.6ZM94.3,115.5a51.7,51.7,0,0,1-11.4,4.7l3.5,13.1a63.3,63.3,0,0,0,14.7-6.1Zm-39.6,5.2-3.5,13.1A69.1,69.1,0,0,0,67,135.9V122.3A56,56,0,0,1,54.7,120.7ZM30.1,107l-9.6,9.6a66.7,66.7,0,0,0,12.7,9.7L40,114.6A56.6,56.6,0,0,1,30.1,107ZM15.7,82.9,2.5,86.4a73.4,73.4,0,0,0,6.1,14.7l11.8-6.8A51.7,51.7,0,0,1,15.7,82.9ZM13.6,68.8H0A69.3,69.3,0,0,0,2.1,84.7l13.1-3.6A54.5,54.5,0,0,1,13.6,68.8Zm-5-34.1A74.3,74.3,0,0,0,2.5,49.5L15.7,53a52.4,52.4,0,0,1,4.7-11.5ZM0,67H13.6a56,56,0,0,1,1.6-12.3L2.1,51.2A69.1,69.1,0,0,0,0,67ZM21.3,95.9,9.5,102.7a70.9,70.9,0,0,0,9.8,12.6l9.6-9.6A52.4,52.4,0,0,1,21.3,95.9Zm20.2,19.6-6.8,11.7a64.1,64.1,0,0,0,14.8,6.1L53,120.2A52.4,52.4,0,0,1,41.5,115.5Zm39.6,5.2a54.5,54.5,0,0,1-12.3,1.6v13.6a69.3,69.3,0,0,0,15.9-2.1ZM105.7,107a52.4,52.4,0,0,1-9.8,7.6l6.8,11.7a66.1,66.1,0,0,0,12.6-9.7Zm14.5-24.1a51.7,51.7,0,0,1-4.7,11.4l11.7,6.8a63.3,63.3,0,0,0,6.1-14.7Zm13.6-31.7-13.1,3.5A56,56,0,0,1,122.3,67h13.6A69.1,69.1,0,0,0,133.8,51.2Zm-6.6-16.5-11.7,6.8A52.4,52.4,0,0,1,120.2,53l13.1-3.5A64.1,64.1,0,0,0,127.2,34.7ZM102.7,9.5,95.9,21.3a52.4,52.4,0,0,1,9.8,7.6l9.6-9.6A70.9,70.9,0,0,0,102.7,9.5ZM68.8,0V13.6a54.5,54.5,0,0,1,12.3,1.6L84.7,2.1A69.3,69.3,0,0,0,68.8,0ZM51.2,2.1l3.5,13.1A56,56,0,0,1,67,13.6V0A69.1,69.1,0,0,0,51.2,2.1Zm-18,7.4a71.6,71.6,0,0,0-12.7,9.8l9.6,9.6A56.6,56.6,0,0,1,40,21.3Z"/></g></g></g></svg>