<svg xmlns="http://www.w3.org/2000/svg"  width="165" height="165"   viewBox="0 0 124.3 124.3"><defs><style>.cls-1{fill:#fff;fill-rule:evenodd;}</style></defs><title>Asset 8</title><g id="Layer_2" data-name="Layer 2"><g id="Layer_1-2" data-name="Layer 1"><polygon class="cls-1" points="124.3 63.2 121.9 63.1 121.9 63.4 124.3 63.5 124.3 63.2"/><polygon class="cls-1" points="124.3 62.7 122 62.7 122 62.9 124.3 63 124.3 62.7"/><polygon class="cls-1" points="124.3 62.2 122 62.2 122 62.5 124.3 62.5 124.3 62.2"/><polygon class="cls-1" points="123.4 72.7 121.1 72.3 121 73 123.2 73.5 123.4 72.7"/><polygon class="cls-1" points="123.6 71.2 121.3 70.9 121.2 71.6 123.5 72 123.6 71.2"/><polygon class="cls-1" points="123.8 69.8 121.5 69.5 121.4 70.3 123.7 70.6 123.8 69.8"/><polygon class="cls-1" points="108.6 103.3 106.9 101.8 106 102.8 107.7 104.3 108.6 103.3"/><polygon class="cls-1" points="110.2 101.5 108.4 100 107.6 101 109.4 102.5 110.2 101.5"/><polygon class="cls-1" points="111.7 99.6 109.9 98.2 109.1 99.2 110.9 100.6 111.7 99.6"/><polygon class="cls-1" points="100 111.4 98.6 109.5 98.4 109.7 99.8 111.5 100 111.4"/><polygon class="cls-1" points="100.4 111.1 99 109.2 98.8 109.4 100.2 111.2 100.4 111.1"/><polygon class="cls-1" points="100.8 110.8 99.4 108.9 99.2 109.1 100.6 110.9 100.8 110.8"/><polygon class="cls-1" points="92.1 116.6 91 114.5 90.3 114.9 91.4 117 92.1 116.6"/><polygon class="cls-1" points="93.3 115.8 92.2 113.8 91.5 114.2 92.6 116.2 93.3 115.8"/><polygon class="cls-1" points="94.6 115.1 93.4 113.1 92.7 113.5 93.9 115.5 94.6 115.1"/><polygon class="cls-1" points="78.2 122.2 77.6 119.9 76.1 120.3 76.6 122.6 78.2 122.2"/><polygon class="cls-1" points="81 121.3 80.3 119.1 78.8 119.6 79.5 121.8 81 121.3"/><polygon class="cls-1" points="83.8 120.4 83 118.2 81.5 118.7 82.2 120.9 83.8 120.4"/><polygon class="cls-1" points="58.9 124.1 59 121.8 57.7 121.8 57.6 124.1 58.9 124.1"/><polygon class="cls-1" points="61.4 124.2 61.4 121.9 60.1 121.9 60 124.2 61.4 124.2"/><polygon class="cls-1" points="63.8 124.2 63.7 121.9 62.4 121.9 62.4 124.3 63.8 124.2"/><polygon class="cls-1" points="47.3 122.5 47.8 120.2 47.6 120.2 47 122.4 47.3 122.5"/><polygon class="cls-1" points="47.7 122.6 48.3 120.3 48 120.3 47.5 122.5 47.7 122.6"/><polygon class="cls-1" points="48.2 122.7 48.7 120.4 48.5 120.4 47.9 122.6 48.2 122.7"/><polygon class="cls-1" points="38.2 119.5 39.1 117.3 38.4 117 37.5 119.2 38.2 119.5"/><polygon class="cls-1" points="39.6 120 40.4 117.9 39.7 117.6 38.8 119.7 39.6 120"/><polygon class="cls-1" points="41 120.6 41.8 118.4 41 118.1 40.2 120.3 41 120.6"/><polygon class="cls-1" points="25.2 112.1 26.6 110.3 25.3 109.3 23.9 111.1 25.2 112.1"/><polygon class="cls-1" points="27.6 113.8 28.9 111.9 27.6 111 26.3 112.9 27.6 113.8"/><polygon class="cls-1" points="30.1 115.4 31.3 113.4 29.9 112.6 28.7 114.5 30.1 115.4"/><polygon class="cls-1" points="19.1 106.9 20.7 105.2 19.9 104.5 18.3 106.1 19.1 106.9"/><polygon class="cls-1" points="20.5 108.2 22.1 106.5 21.3 105.7 19.7 107.4 20.5 108.2"/><polygon class="cls-1" points="21.9 109.5 23.4 107.7 22.7 107 21.1 108.8 21.9 109.5"/><polygon class="cls-1" points="11.6 98.3 13.5 97 12.7 95.9 10.8 97.2 11.6 98.3"/><polygon class="cls-1" points="13.1 100.3 14.9 98.9 14.1 97.8 12.2 99.2 13.1 100.3"/><polygon class="cls-1" points="14.6 102.2 16.4 100.7 15.5 99.7 13.7 101.1 14.6 102.2"/><polygon class="cls-1" points="5.7 88.2 7.8 87.2 7.7 86.9 5.5 87.9 5.7 88.2"/><polygon class="cls-1" points="5.9 88.6 8 87.6 7.9 87.4 5.8 88.3 5.9 88.6"/><polygon class="cls-1" points="6.1 89 8.2 88 8.1 87.8 6 88.8 6.1 89"/><polygon class="cls-1" points="2.4 79.2 4.6 78.6 4.4 77.8 2.1 78.5 2.4 79.2"/><polygon class="cls-1" points="2.8 80.6 5 79.9 4.8 79.2 2.6 79.9 2.8 80.6"/><polygon class="cls-1" points="3.2 82 5.4 81.3 5.2 80.5 3 81.3 3.2 82"/><polygon class="cls-1" points="0.3 56.4 2.6 56.6 2.7 55.5 0.3 55.3 0.3 56.4"/><polygon class="cls-1" points="0.1 58.3 2.5 58.5 2.5 57.4 0.2 57.2 0.1 58.3"/><polygon class="cls-1" points="0 60.3 2.3 60.3 2.4 59.3 0.1 59.2 0 60.3"/><polygon class="cls-1" points="6.5 34.2 8.6 35.3 8.7 35 6.7 34 6.5 34.2"/><polygon class="cls-1" points="6.3 34.7 8.4 35.7 8.5 35.4 6.5 34.4 6.3 34.7"/><polygon class="cls-1" points="6.1 35.1 8.2 36.1 8.3 35.9 6.2 34.8 6.1 35.1"/><polygon class="cls-1" points="11.5 26.1 13.4 27.4 13.8 26.8 11.9 25.4 11.5 26.1"/><polygon class="cls-1" points="10.6 27.3 12.6 28.6 13 28 11.1 26.6 10.6 27.3"/><polygon class="cls-1" points="9.8 28.5 11.8 29.8 12.2 29.1 10.3 27.8 9.8 28.5"/><polygon class="cls-1" points="21.5 15 23.1 16.8 24.3 15.8 22.8 14 21.5 15"/><polygon class="cls-1" points="19.4 17 21 18.7 22.1 17.6 20.6 15.9 19.4 17"/><polygon class="cls-1" points="17.3 19 19 20.6 20.1 19.5 18.4 17.9 17.3 19"/><polygon class="cls-1" points="38 4.8 38.9 6.9 40.1 6.4 39.3 4.3 38 4.8"/><polygon class="cls-1" points="35.8 5.8 36.8 7.9 37.9 7.3 37 5.2 35.8 5.8"/><polygon class="cls-1" points="33.6 6.9 34.7 8.9 35.8 8.3 34.8 6.2 33.6 6.9"/><polygon class="cls-1" points="49.2 1.3 49.7 3.5 50 3.5 49.5 1.2 49.2 1.3"/><polygon class="cls-1" points="48.8 1.4 49.3 3.6 49.5 3.6 49 1.3 48.8 1.4"/><polygon class="cls-1" points="48.3 1.5 48.8 3.7 49.1 3.7 48.6 1.4 48.3 1.5"/><polygon class="cls-1" points="58.7 0.1 58.8 2.4 59.6 2.3 59.5 0 58.7 0.1"/><polygon class="cls-1" points="57.2 0.2 57.4 2.5 58.2 2.4 58 0.1 57.2 0.2"/><polygon class="cls-1" points="55.7 0.3 56 2.6 56.8 2.5 56.6 0.2 55.7 0.3"/><polygon class="cls-1" points="73.6 1 73.2 3.3 74.7 3.6 75.2 1.3 73.6 1"/><polygon class="cls-1" points="70.7 0.5 70.4 2.8 72 3.1 72.3 0.8 70.7 0.5"/><polygon class="cls-1" points="67.8 0.2 67.6 2.5 69.2 2.7 69.4 0.4 67.8 0.2"/><polygon class="cls-1" points="91.9 7.5 90.8 9.5 91.9 10.2 93.1 8.2 91.9 7.5"/><polygon class="cls-1" points="89.7 6.4 88.7 8.5 89.8 9.1 90.9 7 89.7 6.4"/><polygon class="cls-1" points="87.5 5.3 86.6 7.5 87.7 8 88.7 5.9 87.5 5.3"/><polygon class="cls-1" points="101.6 14.1 100.2 15.9 100.4 16.1 101.8 14.3 101.6 14.1"/><polygon class="cls-1" points="101.3 13.8 99.8 15.6 100 15.8 101.5 14 101.3 13.8"/><polygon class="cls-1" points="100.9 13.5 99.4 15.3 99.6 15.5 101.1 13.7 100.9 13.5"/><polygon class="cls-1" points="108.5 20.7 106.7 22.3 107.3 22.8 109 21.3 108.5 20.7"/><polygon class="cls-1" points="107.5 19.6 105.8 21.2 106.3 21.8 108 20.2 107.5 19.6"/><polygon class="cls-1" points="106.5 18.6 104.8 20.2 105.4 20.8 107 19.2 106.5 18.6"/><polygon class="cls-1" points="117 33 115 34.1 115.7 35.5 117.8 34.4 117 33"/><polygon class="cls-1" points="115.6 30.4 113.6 31.6 114.4 33 116.4 31.8 115.6 30.4"/><polygon class="cls-1" points="114.1 27.9 112.1 29.2 113 30.5 114.9 29.3 114.1 27.9"/><polygon class="cls-1" points="120.3 40.4 118.1 41.2 118.5 42.2 120.7 41.4 120.3 40.4"/><polygon class="cls-1" points="119.6 38.6 117.4 39.4 117.8 40.4 120 39.6 119.6 38.6"/><polygon class="cls-1" points="118.9 36.7 116.8 37.7 117.1 38.7 119.3 37.8 118.9 36.7"/><polygon class="cls-1" points="123.4 51.3 121.1 51.7 121.3 53 123.6 52.6 123.4 51.3"/><polygon class="cls-1" points="122.9 48.9 120.6 49.4 120.9 50.7 123.2 50.2 122.9 48.9"/><polygon class="cls-1" points="122.3 46.5 120.1 47.1 120.4 48.4 122.6 47.9 122.3 46.5"/></g></g></svg>