<svg version="1.1" id="Layer_1" xmlns="http://www.w3.org/2000/svg" xmlns:xlink="http://www.w3.org/1999/xlink" x="0px" y="0px" width="140" height="140" 
	 viewBox="0 0 130 130" style="enable-background:new 0 0 130 130;" xml:space="preserve">
<style type="text/css">
	.st0{opacity:0.6;fill:#FFFFFF;enable-background:new    ;}
</style>
<g>
	<polygon class="st0" points="56.1,0.7 56.1,2.5 61.6,1.9 61.6,0.2 61.6,0 56.1,0.6 	"/>
	<path class="st0" d="M30.7,119.9l4.9,2.8l0.9-1.6c-1.6-0.8-3.2-1.8-4.8-2.8L30.7,119.9z"/>
	<polygon class="st0" points="22.2,113.5 26.5,117 27.9,115.7 23.5,112.2 	"/>
	<path class="st0" d="M129.5,75.2l-1.8-0.2c0,0.1,0,0.1,0,0.2c-2.1,12.8-8.2,24.5-17,33.6c-0.2,0.2-0.4,0.5-0.7,0.7
		c-1.5,1.5-3,2.9-4.6,4.2c-0.8,0.7-1.6,1.3-2.4,1.9c-0.8,0.6-1.7,1.2-2.5,1.8c-0.4,0.2-0.7,0.5-1.1,0.7c-0.3,0.2-0.7,0.4-1,0.6
		c0,0,0,0-0.1,0c-0.6,0.4-1.2,0.8-1.9,1.1c-0.4,0.2-0.7,0.4-1.1,0.6c-0.4,0.2-0.8,0.4-1.1,0.6c-0.7,0.3-1.3,0.7-2,1c0,0-0.1,0-0.1,0
		c-0.5,0.2-1,0.5-1.5,0.7c-8.8,3.8-18.6,5.6-28.4,5.1l-0.1,2c3.5,0.2,7.1,0.1,10.5-0.3l0,0c7.3-0.8,14.2-2.8,20.6-5.9
		c1-0.4,1.9-0.9,2.8-1.4c0.5-0.2,0.9-0.5,1.4-0.8c0.4-0.2,0.9-0.5,1.3-0.8c0.7-0.4,1.3-0.8,2-1.2c0.8-0.5,1.6-1.1,2.4-1.6
		c0.5-0.4,1-0.8,1.6-1.2c0.2-0.2,0.5-0.3,0.7-0.5c0.6-0.5,1.2-1,1.8-1.5c0,0,0.1,0,0.1-0.1c0.4-0.3,0.7-0.6,1.1-0.9
		c1.1-0.9,2.1-1.9,3.1-2.9C121,101.2,127.4,88.7,129.5,75.2L129.5,75.2z"/>
	<path class="st0" d="M106.1,14.3L106.1,14.3c-2.2-1.9-4.6-3.5-7.1-5c-0.7-0.5-1.5-0.9-2.2-1.3c-0.4-0.2-0.9-0.5-1.3-0.7
		c-3-1.6-6.2-2.9-9.5-4.1l0,0.1L85.3,5c7.3,2.4,13.9,6.1,19.7,10.8L106.1,14.3z"/>
	<path class="st0" d="M23.3,18.1l-1.2-1.3L22,16.6C10.1,27.3,2.7,41.9,0.9,57.5v0c-0.1,1-0.2,2.1-0.3,3.1c0,0.7-0.1,1.4-0.1,2.1
		c0,0.7,0,1.4,0,2.1v0.2c0,0.6,0,1.2,0,1.8c0,0.4,0,0.8,0,1.2c0,0.2,0,0.5,0,0.7c0,0.4,0.1,0.8,0.1,1.3c0,0.4,0.1,0.7,0.1,1.1
		c0.1,0.9,0.2,1.8,0.3,2.7c0.1,0.4,0.1,0.9,0.2,1.3c0.1,0.4,0.1,0.8,0.2,1.2c0.1,0.8,0.3,1.6,0.5,2.4c0,0,0,0.1,0,0.1
		c1.1,5.2,2.9,10.2,5.4,15.2l0,0L9,93.3C1.1,77.6,0.3,59.7,6,43.7l0,0c0.3-1,0.7-2,1.1-2.9c0.8-1.8,1.6-3.6,2.5-5.4
		c0.1-0.3,0.3-0.5,0.4-0.8c0.6-1.2,1.3-2.3,2.1-3.5c0.2-0.3,0.4-0.7,0.6-1c0.1-0.1,0.2-0.2,0.2-0.3c0.2-0.3,0.4-0.6,0.6-0.9
		c0.2-0.4,0.5-0.7,0.8-1.1c0.5-0.7,1.1-1.4,1.6-2.1c0.4-0.5,0.8-1,1.2-1.5c0.3-0.3,0.6-0.7,0.9-1c0.6-0.7,1.2-1.4,1.9-2
		c0.3-0.3,0.6-0.7,1-1c0.4-0.4,0.8-0.8,1.3-1.2C22.7,18.6,23,18.3,23.3,18.1z"/>
</g>
</svg>
